<?xml version="1.0" standalone="no"?>
<!DOCTYPE svg PUBLIC "-//W3C//DTD SVG 20010904//EN"
 "http://www.w3.org/TR/2001/REC-SVG-20010904/DTD/svg10.dtd">
<svg version="1.0" xmlns="http://www.w3.org/2000/svg"
 width="320.000000pt" height="320.000000pt" viewBox="0 0 320.000000 320.000000"
 preserveAspectRatio="xMidYMid meet">

<g transform="translate(0.000000,320.000000) scale(0.100000,-0.100000)"
fill="#000000" stroke="none">
<path d="M1402 3089 c-322 -43 -628 -196 -861 -430 -211 -211 -348 -467 -412
-769 -32 -149 -32 -429 -1 -575 30 -141 65 -243 127 -372 l53 -112 -48 -64
c-80 -106 -179 -261 -212 -334 -55 -121 -48 -226 17 -269 94 -62 257 -25 574
129 l125 60 30 -18 c308 -182 633 -259 951 -226 664 70 1180 536 1327 1198 32
143 32 443 0 590 -29 132 -71 253 -133 377 l-49 99 28 33 c123 147 155 188
194 249 62 94 80 140 81 202 3 123 -101 175 -289 143 -66 -11 -298 -85 -424
-134 l-45 -18 -70 43 c-137 83 -313 150 -485 184 -102 20 -374 28 -478 14z
m463 -114 c314 -65 583 -221 791 -457 35 -40 64 -77 64 -83 0 -10 -241 -251
-418 -419 -52 -49 -97 -84 -101 -80 -4 5 -18 50 -31 99 -13 50 -26 96 -30 104
-4 7 -57 -112 -127 -290 -67 -167 -119 -306 -118 -307 4 -4 604 157 623 167 7
4 -37 26 -100 50 l-112 44 50 45 c27 25 142 135 256 244 l207 199 36 -71 c81
-161 133 -364 142 -555 33 -697 -453 -1307 -1147 -1441 -139 -26 -381 -24
-516 4 -292 62 -513 180 -715 382 -58 58 -115 119 -127 136 l-22 32 112 133
c153 184 388 449 398 449 4 0 25 -47 45 -105 21 -58 40 -103 44 -100 6 7 189
618 186 623 -3 4 -615 -222 -615 -228 0 -3 46 -18 103 -34 56 -16 105 -32 110
-36 4 -3 -47 -67 -114 -141 -66 -73 -173 -196 -237 -272 -63 -75 -119 -137
-124 -137 -27 0 -124 267 -154 420 -26 139 -25 391 4 522 61 279 174 496 362
691 206 215 441 347 726 406 55 11 115 22 134 25 76 9 338 -3 415 -19z m1165
-138 c0 -24 -73 -134 -154 -233 l-79 -97 -35 44 c-20 24 -66 75 -104 113 -37
38 -66 71 -64 73 7 8 206 74 277 93 89 23 159 26 159 7z m-2500 -2279 l93 -97
-109 -52 c-108 -50 -248 -101 -311 -113 -25 -4 -33 -2 -33 9 0 28 88 185 160
285 69 98 73 101 89 84 9 -11 59 -63 111 -116z"/>
</g>
</svg>
